<svg width="96" height="96" viewBox="0 0 96 96" fill="none" xmlns="http://www.w3.org/2000/svg">
<mask id="mask0_1094_176" style="mask-type:luminance" maskUnits="userSpaceOnUse" x="0" y="0" width="96" height="96">
<path d="M0 7.62939e-06H96V96H0V7.62939e-06Z" fill="white"/>
</mask>
<g mask="url(#mask0_1094_176)">
<path d="M64.3773 27.7561C53.9371 16.1731 60.7188 5.24377 62.4755 2.81264H33.5236C35.2803 5.24377 42.0618 16.1731 31.622 27.7561C19.7761 40.8986 14.9163 46.6895 20.9909 66.3041L30.7106 93.189H65.2886L75.0082 66.3041C81.083 46.6895 76.2232 40.8986 64.3773 27.7561Z" stroke="#C5A56F" stroke-width="2" stroke-miterlimit="10"/>
<path d="M77.5969 58.2598L67.7321 52.6348L57.8668 58.2598L48.0015 52.6348L38.1364 58.2598L28.2699 52.6348L18.4033 58.2598" stroke="#C5A56F" stroke-width="2" stroke-miterlimit="10"/>
<path d="M36.8457 16.3125H59.1543" stroke="#C5A56F" stroke-width="2" stroke-miterlimit="10"/>
<path d="M31.2754 28.1421H64.7245" stroke="#C5A56F" stroke-width="2" stroke-miterlimit="10"/>
<path d="M26.0762 81.3281H69.9234" stroke="#C5A56F" stroke-width="2" stroke-miterlimit="10"/>
<path d="M35.7341 8.74288C35.7341 8.74288 24.8591 4.8125 20.8591 12.5626C16.3025 21.3911 29.4841 30.6875 29.4841 30.6875" stroke="#C5A56F" stroke-width="2" stroke-miterlimit="10"/>
<path d="M60.2656 8.74288C60.2656 8.74288 71.1406 4.8125 75.1406 12.5626C79.6972 21.3911 66.5156 30.6875 66.5156 30.6875" stroke="#C5A56F" stroke-width="2" stroke-miterlimit="10"/>
</g>
</svg>
